<?xml version="1.0" encoding="utf-8"?>
<!-- Generator: Adobe Illustrator 28.0.0, SVG Export Plug-In . SVG Version: 6.00 Build 0)  -->
<svg version="1.1" id="Layer_1" xmlns="http://www.w3.org/2000/svg" xmlns:xlink="http://www.w3.org/1999/xlink" x="0px" y="0px"
	 viewBox="0 0 1920 550" style="enable-background:new 0 0 1920 550;" xml:space="preserve">
<style type="text/css">
	.st0{fill:#FDEBEC;}
	.st1{fill:#F9B8BA;}
	.st2{fill:#F48584;}
	.st3{fill:#FEEAE7;}
	.st4{fill:#F15A5A;}
	.st5{fill:#7D2C30;}
	.st6{fill:#F48282;}
	.st7{fill:#F6A3A9;}
	.st8{fill:#FEECEA;}
	.st9{fill:#F7A3A8;}
	.st10{fill:#FEECEC;}
	.st11{fill:#F15B5E;}
	.st12{fill:#792E32;}
	.st13{fill:#EF8786;}
	.st14{fill:#FBCDCE;}
	.st15{fill:#F9B7B7;}
	.st16{fill:#FCD7D9;}
	.st17{fill:#F9B8B8;}
	.st18{fill:#FFFFFF;}
	.st19{fill:#F9B7B9;}
	.st20{fill:#FFFBFA;}
	.st21{fill:#F9B7B8;}
	.st22{fill:#356E70;}
	.st23{fill:none;stroke:#18595B;stroke-width:2;stroke-miterlimit:10;}
	.st24{fill:#F8B6B8;}
	.st25{fill:#F7A4A9;}
	.st26{fill:#F15E5F;}
	.st27{fill:#FEEFEC;}
	.st28{fill:#94635F;}
	.st29{fill:#936265;}
	.st30{fill:#F8B4B9;}
	.st31{fill:#F7A5A7;}
	.st32{fill:#C85751;}
	.st33{fill:#C25556;}
	.st34{fill:#D45350;}
	.st35{fill:#773131;}
	.st36{fill:#CADEDD;}
	.st37{fill:#417E84;}
	.st38{fill:none;stroke:#376464;stroke-width:2;stroke-miterlimit:10;}
	.st39{fill:#F48284;}
	.st40{fill:#CC3F50;}
	.st41{fill:#FBCDCC;}
	.st42{fill:#F15F5A;}
	.st43{fill:#34716E;}
	.st44{fill:#31716D;}
	.st45{fill:#102A29;}
	.st46{fill:#478687;}
	.st47{fill:none;stroke:#2E7172;stroke-width:2;stroke-miterlimit:10;}
	.st48{fill:#2D7272;}
	.st49{fill:none;stroke:#195355;stroke-width:3;stroke-miterlimit:10;}
	.st50{fill:#478687;stroke:#3B6966;stroke-width:3;stroke-miterlimit:10;}
	.st51{fill:#498587;}
	.st52{fill:none;stroke:#236460;stroke-width:2;stroke-miterlimit:10;}
	.st53{fill:#F15B5B;}
	.st54{fill:#812D2D;}
	.st55{fill:#F4847F;}
	.st56{fill:#401818;}
	.st57{fill:#694255;}
	.st58{fill:#9C2420;}
	.st59{fill:#9C2720;}
	.st60{fill:none;stroke:#FFFFFF;stroke-miterlimit:10;}
	.st61{fill:#421413;}
	.st62{fill:#7F2D2A;}
	.st63{fill:#3E181A;}
	.st64{fill:#F48485;}
	.st65{fill:#F48285;}
	.st66{fill:#FCD9DA;}
	.st67{fill:#F9B6B5;}
	.st68{fill:#478786;}
	.st69{fill:#2D7274;}
	.st70{fill:#4B878C;}
	.st71{fill:none;stroke:#347574;stroke-miterlimit:10;}
	.st72{fill:#307577;}
	.st73{fill:none;stroke:#194C4A;stroke-width:5;stroke-miterlimit:10;}
	.st74{fill:#326E70;}
	.st75{fill:none;stroke:#1B4B4F;stroke-width:2;stroke-miterlimit:10;}
	.st76{fill:#C54252;}
	.st77{fill:#EB7575;}
	.st78{fill:#F15959;}
	.st79{fill:#F3746F;}
	.st80{fill:#2C7277;}
	.st81{fill:none;stroke:#2B6768;stroke-width:3;stroke-miterlimit:10;}
	.st82{fill:#418685;}
	.st83{fill:#397A78;stroke:#397A78;stroke-width:2;stroke-miterlimit:10;}
	.st84{fill:#297172;}
	.st85{fill:none;stroke:#135353;stroke-width:2;stroke-miterlimit:10;}
	.st86{fill:#47878D;}
	.st87{fill:#079247;stroke:#3D7A7B;stroke-width:2;stroke-miterlimit:10;}
	.st88{fill:#2C7273;}
	.st89{fill:none;stroke:#16514F;stroke-width:4;stroke-miterlimit:10;}
	.st90{fill:#2B7475;}
	.st91{fill:none;stroke:#236460;stroke-width:6;stroke-miterlimit:10;}
	.st92{fill:#F3726C;}
	.st93{fill:#C74152;}
	.st94{fill:#F15D5C;}
	.st95{fill:#F15C5E;}
	.st96{fill:#F38081;}
	.st97{fill:#7E2D2D;}
	.st98{fill:#F15B5A;}
	.st99{fill:#D69599;}
	.st100{fill:#F7A3A7;}
	.st101{fill:#F15C60;}
	.st102{fill:#7E2E2B;}
	.st103{fill:#802C2C;}
	.st104{fill:#FDEAED;}
	.st105{fill:#CD4051;}
	.st106{fill:#FEEDEB;}
	.st107{fill:#802C2F;}
	.st108{fill:#FDEBED;}
	.st109{fill:#F7A5A8;}
	.st110{fill:#FBD6D8;}
	.st111{fill:#742B2D;}
	.st112{fill:#A36968;}
	.st113{fill:#7D2F2D;}
	.st114{fill:#F48884;}
	.st115{fill:#F15C59;}
	.st116{fill:#FDEBF0;}
	.st117{fill:#C94250;}
	.st118{fill:#CE3E53;}
	.st119{fill:#FBCCCA;}
	.st120{fill:#6F455F;}
	.st121{fill:#F7A4AA;}
	.st122{fill:#7D2B2B;}
	.st123{fill:#DF6862;}
	.st124{fill:#E86560;}
	.st125{fill:#468585;}
	.st126{fill:none;stroke:#456D6C;stroke-width:4;stroke-miterlimit:10;}
	.st127{fill:none;stroke:#29605F;stroke-width:3;stroke-miterlimit:10;}
	.st128{fill:none;stroke:#367877;stroke-width:4;stroke-miterlimit:10;}
</style>
<path class="st0" d="M1772.17,163.83c0,0-138.55-34.07-321.33,52.22c-77.33,36.51-220,37.78-261.33,14.45v119.33h582.67V163.83z"/>
<polygon class="st0" points="1691.17,158.94 1697.72,131.83 1705.29,157.24 1716.17,115.56 1726.39,162.72 "/>
<path id="Hill_00000047751394646224007380000006122662941000430468_" class="st0" d="M376.67,229.83c0,0,404.38-246.33,768.06-11.33
	v174.44H375.17L376.67,229.83z"/>
<polygon id="Tree_00000021820841123521551020000005375425232492020103_" class="st0" points="467.94,189.17 483.28,131.83 
	492.96,167.17 503.28,131.83 515.28,173.61 "/>
<polygon id="Tree_00000054951101052847535430000015768989956738615690_" class="st0" points="587.94,93.17 603.72,134.5 
	588.61,134.5 588.61,148.72 586.61,148.72 586.58,134.5 572.14,134.5 "/>
<polygon id="Tree_00000049203743588116713370000016178767120060278935_" class="st0" points="911.53,133.17 924.83,83.17 
	936.39,126.28 946.83,87.83 960.5,146.5 "/>
<polygon id="Trees" class="st1" points="1449.5,171.44 1468.61,246.06 1403.83,257.82 1426.5,186.17 1436.22,225.67 "/>
<g id="House">
	<polygon class="st2" points="1580.5,214.92 1609.5,214.92 1609.5,175.83 1595,161.17 1580.5,175.83 	"/>
	<rect x="1609.33" y="175.83" class="st3" width="24.67" height="33.5"/>
	<rect x="1618.75" y="183.96" class="st4" width="8.08" height="8.08"/>
	<polygon class="st2" points="1634,175.83 1595,175.83 1595,161.17 1617.83,161.17 	"/>
	<rect x="1590.96" y="183.96" class="st5" width="8.08" height="8.08"/>
</g>
<g id="Houser">
	<polygon class="st6" points="1486.5,177.5 1551.5,177.5 1551.5,150.17 1513.67,150.17 	"/>
	<rect x="1486.5" y="177.5" class="st7" width="37.67" height="62.67"/>
	<polygon class="st8" points="1580.5,240.17 1524.17,240.17 1524.17,177.5 1552.33,150.17 1580.5,177.5 	"/>
	<rect x="1546.58" y="175.83" class="st4" width="12.17" height="12.17"/>
	<rect x="1546.58" y="202.75" class="st5" width="12.17" height="12.17"/>
</g>
<g id="House_00000074434581467937271380000004389785354856177829_">
	<polygon class="st2" points="50.33,110.17 115.19,110.17 115.19,83.33 77,83.33 	"/>
	<rect x="50.11" y="110.17" class="st9" width="37.67" height="9.94"/>
	<rect x="22.86" y="126" class="st9" width="40.63" height="28.79"/>
	<polygon class="st10" points="87.2,110.33 115.2,83.33 141.59,110.33 141.59,168.67 62.78,168.67 62.78,126 86.98,120.11 	"/>
	<rect x="36.67" y="136.17" class="st11" width="12.67" height="12.67"/>
	<rect x="109.89" y="109.44" class="st11" width="12.67" height="12.67"/>
	<rect x="109.89" y="135" class="st12" width="12.67" height="12.67"/>
	<rect x="69.22" y="135" class="st12" width="12.67" height="12.67"/>
	<polygon class="st13" points="23.44,126 63.58,126 87.78,120.11 50.33,120.11 	"/>
</g>
<polygon id="Tree_00000058548728513447719190000009355940849651739790_" class="st14" points="21.5,150.94 5.72,95.17 0.5,110.17 
	0.5,149.58 "/>
<polygon class="st15" points="1468.61,241.57 1448.61,171.42 1437.94,225.61 1425.5,187.17 1409.5,255.61 "/>
<path class="st16" d="M0.5,145.83c0,0,329,21.33,672.33,170.67v74H0.5V145.83z"/>
<path class="st16" d="M1279.08,286.81c0,0,288.03-97.42,575.44-124.09v200.39h-577.47L1279.08,286.81z"/>
<polygon class="st17" points="586.39,203.17 608.83,264.06 588.17,264.06 588.17,284.5 585.28,284.5 585.28,264.28 562.39,264.28 
	"/>
<path class="st18" d="M0.5,228.5c0,0,277.89-33.78,633,83.56v107.56H0.5V228.5z"/>
<polygon id="Tree_00000168816743435263552040000013421545585578563735_" class="st19" points="1493.61,241.57 1508.94,282.34 
	1480.28,288.1 "/>
<polygon id="Tree_00000021082916029131449410000002710331283239355831_" class="st20" points="1508.94,251.34 1518.28,286.01 
	1497.61,288.1 "/>
<polygon id="Tree_00000100365640280255565150000001939939830414340489_" class="st21" points="1588.83,220.5 1607.06,280.06 
	1571.5,280.06 "/>
<g id="Tree_00000100363303819684062800000006274832841629229468_">
	<polygon class="st22" points="1645.17,215.78 1662.53,275.34 1627.83,275.34 	"/>
	<line class="st23" x1="1645.18" y1="226" x2="1645.18" y2="271.12"/>
</g>
<path class="st18" d="M1797.06,266.06c0,0-294.56-34.39-563.06,92.69s0,0,0,0v79.75h566.61L1797.06,266.06z"/>
<polygon class="st24" points="857.71,203.17 887.49,295.98 826.4,295.98 "/>
<polygon class="st25" points="768.39,344.17 821.83,344.17 821.83,161.39 791.28,161.39 768.39,186.39 "/>
<rect x="774.94" y="212.22" class="st26" width="13.44" height="13.44"/>
<polygon class="st27" points="848.17,344.17 795.28,344.17 795.28,185.13 821.72,161.39 848.17,185.76 "/>
<rect x="814.11" y="187.17" class="st28" width="13.44" height="13.44"/>
<rect x="814.11" y="212.17" class="st26" width="13.44" height="13.44"/>
<rect x="814.11" y="237.17" class="st29" width="13.44" height="13.44"/>
<g id="Snow_00000049221262094714395420000002234414674953709702_">
	<path class="st18" d="M676.44,279h-24c0-6.63,5.37-12,12-12C671.07,267,676.44,272.37,676.44,279z"/>
	<path class="st18" d="M687.44,279h-14c0-3.87,3.13-7,7-7C684.31,272,687.44,275.13,687.44,279z"/>
</g>
<polygon class="st30" points="795.11,280.61 816.11,346.61 774.44,346.61 "/>
<polygon class="st31" points="764.72,354.72 717.67,354.72 717.67,266.5 733.17,250.72 764.72,250.72 "/>
<polygon class="st8" points="741.78,271.49 764.61,250.56 786,271.49 786,354.72 741.78,354.72 "/>
<g id="Red_Window_00000070110722587178794410000009768433602274814627_">
	<rect x="750.94" y="278.48" class="st18" width="27" height="26.5"/>
	<rect x="750.94" y="278.48" class="st32" width="9" height="13"/>
	<rect x="750.94" y="293.48" class="st33" width="9" height="11"/>
	<rect x="761.94" y="278.48" class="st34" width="8" height="13"/>
	<rect x="761.94" y="293.48" class="st34" width="8" height="11"/>
	<rect x="769.94" y="278.48" class="st35" width="8" height="26"/>
	<rect x="750.94" y="304.48" class="st36" width="10" height="9"/>
	<rect x="760.94" y="304.48" class="st18" width="23" height="9"/>
</g>
<polygon class="st37" points="754.17,262.17 779.5,349 731.67,349 "/>
<line class="st38" x1="754.17" y1="269.17" x2="754.17" y2="349"/>
<line class="st38" x1="754.56" y1="307.08" x2="764.06" y2="302.56"/>
<line class="st38" x1="754.17" y1="330.89" x2="742.44" y2="324.89"/>
<rect x="623.67" y="296.33" class="st39" width="53" height="76.83"/>
<polygon class="st40" points="623.67,296.33 709.67,296.33 709.67,262.17 659.33,262.17 "/>
<polygon class="st41" points="676.67,361 743.33,361 743.33,296 710,262.17 676.67,296 "/>
<rect x="623.67" y="296.33" class="st42" width="53" height="11.67"/>
<g id="Green_Window_00000011735198835827765150000016015446498376284561_">
	
		<rect x="635.17" y="308" transform="matrix(-1 -4.486867e-11 4.486867e-11 -1 1297.3334 642)" class="st18" width="27" height="26"/>
	
		<rect x="653.17" y="308" transform="matrix(-1 -4.466661e-11 4.466661e-11 -1 1315.3334 629)" class="st43" width="9" height="13"/>
	
		<rect x="653.17" y="323" transform="matrix(-1 -4.466661e-11 4.466661e-11 -1 1315.3334 657)" class="st43" width="9" height="11"/>
	
		<rect x="643.17" y="308" transform="matrix(-1 -4.502011e-11 4.502011e-11 -1 1294.3334 629)" class="st43" width="8" height="13"/>
	
		<rect x="643.17" y="323" transform="matrix(-1 -4.502011e-11 4.502011e-11 -1 1294.3334 657)" class="st44" width="8" height="11"/>
	
		<rect x="635.17" y="308" transform="matrix(-1 -4.502011e-11 4.502011e-11 -1 1278.3334 642)" class="st45" width="8" height="26"/>
	
		<rect x="652.17" y="334" transform="matrix(-1 -4.474744e-11 4.474744e-11 -1 1314.3334 677)" class="st36" width="10" height="9"/>
	
		<rect x="629.17" y="334" transform="matrix(-1 -4.492108e-11 4.492108e-11 -1 1281.3334 677)" class="st18" width="23" height="9"/>
</g>
<g id="Green_Window_00000139992329602072899960000012328344105893802430_">
	<rect x="698.67" y="307.67" class="st18" width="27" height="26"/>
	<rect x="698.67" y="307.67" class="st43" width="9" height="13"/>
	<rect x="698.67" y="322.67" class="st43" width="9" height="11"/>
	<rect x="709.67" y="307.67" class="st43" width="8" height="13"/>
	<rect x="709.67" y="322.67" class="st44" width="8" height="11"/>
	<rect x="717.67" y="307.67" class="st45" width="8" height="26"/>
	<rect x="698.67" y="333.67" class="st36" width="10" height="9"/>
	<rect x="708.67" y="333.67" class="st18" width="23" height="9"/>
</g>
<g id="Snow_00000027592108852008945860000010995148279451938203_">
	<path class="st18" d="M650.3,295.98h-10.63c0-2.94,2.38-5.32,5.32-5.32S650.3,293.05,650.3,295.98z"/>
	<path class="st18" d="M660.17,295.98h-6.7c0-1.85,1.5-3.35,3.35-3.35C658.67,292.63,660.17,294.13,660.17,295.98z"/>
</g>
<g id="Tree_00000179646935403478573410000010871897633252906131_">
	<polygon class="st46" points="141.94,172.5 182.5,310.91 103.5,310.91 	"/>
	<line class="st47" x1="142.39" y1="195.89" x2="142.39" y2="313.33"/>
	<line class="st47" x1="142.39" y1="262.9" x2="161.5" y2="246.82"/>
	<line class="st47" x1="121.5" y1="265.06" x2="142.39" y2="282.29"/>
</g>
<g id="Tree_00000087379109446322481610000004272460345083191696_">
	<polygon class="st48" points="338.96,200.89 375.89,340.71 297.22,340.71 	"/>
	<line class="st49" x1="339.73" y1="220.75" x2="339.73" y2="350"/>
	<line class="st49" x1="339.73" y1="276.21" x2="351.5" y2="267"/>
	<line class="st49" x1="324.39" y1="278.48" x2="339.73" y2="296.33"/>
</g>
<g id="Tree_00000042006315112925267660000003923149861902215096_">
	<polygon class="st46" points="375.17,225.67 408.17,347.33 333.01,347.33 	"/>
	<line class="st50" x1="375.17" y1="252.78" x2="375.17" y2="333.67"/>
</g>
<polygon class="st51" points="1045.6,209.39 1068.83,136.06 1103.1,264.1 "/>
<line class="st52" x1="1068.83" y1="148.17" x2="1068.83" y2="237.32"/>
<line class="st52" x1="1068.83" y1="207.89" x2="1079.33" y2="196.67"/>
<rect x="832.14" y="267.83" class="st53" width="84.67" height="82.67"/>
<polygon class="st54" points="889,236.17 1028.78,236.17 1028.78,179.61 945.56,179.61 "/>
<polygon class="st8" points="1028.61,179.61 1106.17,254.5 1106.17,350.5 917.06,350.5 917.06,267.83 971.06,257.83 971.06,235.83 
	"/>
<g id="Red_Window_00000160902205227486839190000014814453384337822351_">
	<rect x="1016.27" y="292.63" class="st18" width="27" height="26.5"/>
	<rect x="1016.27" y="292.63" class="st32" width="9" height="13"/>
	<rect x="1016.27" y="307.63" class="st33" width="9" height="11"/>
	<rect x="1027.27" y="292.63" class="st34" width="8" height="13"/>
	<rect x="1027.27" y="307.63" class="st34" width="8" height="11"/>
	<rect x="1035.27" y="292.63" class="st35" width="8" height="26"/>
	<rect x="1016.27" y="318.63" class="st36" width="10" height="9"/>
	<rect x="1026.27" y="318.63" class="st18" width="23" height="9"/>
</g>
<g id="Green_Window_00000155105891566698251900000017235720293876725386_">
	<rect x="1016.83" y="231.82" class="st18" width="27" height="26"/>
	<rect x="1016.83" y="231.82" class="st43" width="9" height="13"/>
	<rect x="1016.83" y="246.82" class="st43" width="9" height="11"/>
	<rect x="1027.83" y="231.82" class="st43" width="8" height="13"/>
	<rect x="1027.83" y="246.82" class="st44" width="8" height="11"/>
	<rect x="1035.83" y="231.82" class="st45" width="8" height="26"/>
	<rect x="1016.83" y="257.82" class="st36" width="10" height="9"/>
	<rect x="1026.83" y="257.82" class="st18" width="23" height="9"/>
</g>
<g id="Green_Window_00000057840367039207189450000002929132645733179529_">
	<rect x="931.89" y="292.63" class="st18" width="27" height="26"/>
	<rect x="931.89" y="292.63" class="st43" width="9" height="13"/>
	<rect x="931.89" y="307.63" class="st43" width="9" height="11"/>
	<rect x="942.89" y="292.63" class="st43" width="8" height="13"/>
	<rect x="942.89" y="307.63" class="st44" width="8" height="11"/>
	<rect x="950.89" y="292.63" class="st45" width="8" height="26"/>
	<rect x="931.89" y="318.63" class="st36" width="10" height="9"/>
	<rect x="941.89" y="318.63" class="st18" width="23" height="9"/>
</g>
<rect x="888.83" y="235.83" class="st55" width="82.17" height="21.98"/>
<rect x="888.83" y="235.83" class="st4" width="82.17" height="12.44"/>
<rect x="967.61" y="165.83" class="st54" width="18" height="18"/>
<rect x="967.61" y="165.83" class="st54" width="18" height="17.33"/>
<rect x="985.61" y="165.83" class="st56" width="19.22" height="17.33"/>
<circle class="st57" cx="908.58" cy="276.32" r="2.96"/>
<circle class="st57" cx="875.66" cy="285.27" r="2.96"/>
<circle class="st57" cx="846.21" cy="282.29" r="2.96"/>
<circle class="st58" cx="892.31" cy="282.32" r="2.96"/>
<circle class="st59" cx="859.9" cy="284.98" r="2.96"/>
<circle class="st58" cx="835.35" cy="276.53" r="2.96"/>
<path class="st60" d="M917.06,267.98c0,0-20.47,13.88-49.09,13.88c-28.62,0-35.58-13.88-35.58-13.88"/>
<polygon class="st61" points="970.72,257.82 888.83,257.82 832.11,267.98 916.81,267.98 "/>
<g id="Red_Window_00000069384671334372130250000005988696471286363806_">
	
		<rect x="859.72" y="291.48" transform="matrix(-1 -4.493573e-11 4.493573e-11 -1 1746.4445 609.4662)" class="st18" width="27" height="26.5"/>
	
		<rect x="877.72" y="291.48" transform="matrix(-1 -4.507074e-11 4.507074e-11 -1 1764.4445 595.9662)" class="st32" width="9" height="13"/>
	
		<rect x="877.72" y="306.48" transform="matrix(-1 -4.507074e-11 4.507074e-11 -1 1764.4445 623.9662)" class="st33" width="9" height="11"/>
	
		<rect x="867.72" y="291.48" transform="matrix(-1 -4.502011e-11 4.502011e-11 -1 1743.4445 595.9662)" class="st34" width="8" height="13"/>
	
		<rect x="867.72" y="306.48" transform="matrix(-1 -4.502011e-11 4.502011e-11 -1 1743.4445 623.9662)" class="st34" width="8" height="11"/>
	
		<rect x="859.72" y="291.48" transform="matrix(-1 -4.502011e-11 4.502011e-11 -1 1727.4445 608.9662)" class="st35" width="8" height="26"/>
	
		<rect x="876.72" y="317.48" transform="matrix(-1 -4.492907e-11 4.492907e-11 -1 1763.4445 643.9662)" class="st36" width="10" height="9"/>
	
		<rect x="853.72" y="317.48" transform="matrix(-1 -4.492108e-11 4.492108e-11 -1 1730.4445 643.9662)" class="st18" width="23" height="9"/>
</g>
<g id="Snow_00000021810439351627664450000015757745460508248721_">
	<path class="st18" d="M800.97,347.45h37.14c0-10.26-8.31-18.57-18.57-18.57C809.28,328.88,800.97,337.2,800.97,347.45z"/>
	<path class="st18" d="M783.94,347.45h21.66c0-5.98-4.85-10.83-10.83-10.83C788.79,336.62,783.94,341.47,783.94,347.45z"/>
</g>
<g id="Snow_00000176759739661921262430000015983003902768591265_">
	<path class="st18" d="M930.92,235.83h-24c0-6.63,5.37-12,12-12C925.54,223.83,930.92,229.21,930.92,235.83z"/>
	<path class="st18" d="M941.92,235.83h-14c0-3.87,3.13-7,7-7C938.78,228.83,941.92,231.97,941.92,235.83z"/>
</g>
<g id="Snow_00000123418105095292761800000007605234581421504128_">
	<path class="st18" d="M960.17,207.89h24c0-6.63-5.37-12-12-12C965.54,195.89,960.17,201.26,960.17,207.89z"/>
	<path class="st18" d="M949.17,207.89h14c0-3.87-3.13-7-7-7C952.3,200.89,949.17,204.02,949.17,207.89z"/>
</g>
<g id="Snow_00000035503143160560066280000017489382468419116688_">
	<path class="st18" d="M1042.77,348.04h24c0-6.63-5.37-12-12-12C1048.14,336.04,1042.77,341.41,1042.77,348.04z"/>
	<path class="st18" d="M1031.77,348.04h14c0-3.87-3.13-7-7-7C1034.9,341.04,1031.77,344.17,1031.77,348.04z"/>
</g>
<polygon class="st62" points="1253.94,227.39 1148.39,227.39 1148.39,174.5 1211.28,174.5 "/>
<polygon class="st63" points="1317.17,293.19 1241,293.19 1241,248.36 1275.33,248.36 "/>
<polygon class="st64" points="1253.94,227.39 1190.61,227.39 1148.39,174.5 1112.28,220.5 1112.28,372.72 1190.61,372.72 
	1190.61,237.32 1253.94,237.32 "/>
<rect x="1250.67" y="304.67" class="st0" width="66.24" height="75.61"/>
<rect x="1240.29" y="293.19" class="st65" width="77.58" height="11.54"/>
<rect x="1190.61" y="237.32" class="st0" width="63.33" height="135.41"/>
<g id="Snow_00000160177526687469647470000014735132873585897088_">
	<path class="st18" d="M1184.47,196.12h-12.89c0-3.56,2.89-6.44,6.44-6.44C1181.59,189.67,1184.47,192.56,1184.47,196.12z"/>
	<path class="st18" d="M1196.17,196.11h-10.42c0-2.88,2.33-5.21,5.21-5.21S1196.17,193.23,1196.17,196.11z"/>
</g>
<g id="Snow_00000165956564085423427300000012386848175271831215_">
	<path class="st18" d="M1237,227.39h-24c0-6.63,5.37-12,12-12S1237,220.76,1237,227.39z"/>
	<path class="st18" d="M1248,227.39h-14c0-3.87,3.13-7,7-7S1248,223.52,1248,227.39z"/>
</g>
<g id="Red_Window_00000063596135206160661820000016056158004653257369_">
	<rect x="1209.98" y="246.06" class="st18" width="27" height="26.5"/>
	<rect x="1209.98" y="246.06" class="st32" width="9" height="13"/>
	<rect x="1209.98" y="261.06" class="st33" width="9" height="11"/>
	<rect x="1220.98" y="246.06" class="st34" width="8" height="13"/>
	<rect x="1220.98" y="261.06" class="st34" width="8" height="11"/>
	<rect x="1228.98" y="246.06" class="st35" width="8" height="26"/>
	<rect x="1209.98" y="272.06" class="st36" width="10" height="9"/>
	<rect x="1219.98" y="272.06" class="st18" width="23" height="9"/>
</g>
<g id="Green_Window_00000087394631613143156770000000689258141386435746_">
	<rect x="1209.98" y="304.73" class="st18" width="27" height="26"/>
	<rect x="1209.98" y="304.73" class="st43" width="9" height="13"/>
	<rect x="1209.98" y="319.73" class="st43" width="9" height="11"/>
	<rect x="1220.98" y="304.73" class="st43" width="8" height="13"/>
	<rect x="1220.98" y="319.73" class="st44" width="8" height="11"/>
	<rect x="1228.98" y="304.73" class="st45" width="8" height="26"/>
	<rect x="1209.98" y="330.73" class="st36" width="10" height="9"/>
	<rect x="1219.98" y="330.73" class="st18" width="23" height="9"/>
</g>
<rect x="1133.97" y="230.86" transform="matrix(-1 -4.490243e-11 4.490243e-11 -1 2294.9326 487.7222)" class="st18" width="27" height="26"/>
<rect x="1151.97" y="230.86" transform="matrix(-1 -4.486867e-11 4.486867e-11 -1 2312.9326 474.7222)" class="st43" width="9" height="13"/>
<rect x="1151.97" y="245.86" transform="matrix(-1 -4.486867e-11 4.486867e-11 -1 2312.9326 502.7222)" class="st43" width="9" height="11"/>
<rect x="1141.97" y="230.86" transform="matrix(-1 -4.490642e-11 4.490642e-11 -1 2291.9326 474.7222)" class="st43" width="8" height="13"/>
<rect x="1141.97" y="245.86" transform="matrix(-1 -4.490642e-11 4.490642e-11 -1 2291.9326 502.7222)" class="st44" width="8" height="11"/>
<rect x="1133.97" y="230.86" transform="matrix(-1 -4.490642e-11 4.490642e-11 -1 2275.9326 487.7222)" class="st45" width="8" height="26"/>
<rect x="1150.97" y="256.86" transform="matrix(-1 -4.502011e-11 4.502011e-11 -1 2311.9326 522.7222)" class="st36" width="10" height="9"/>
<rect x="1127.97" y="256.86" transform="matrix(-1 -4.484203e-11 4.484203e-11 -1 2278.9326 522.7222)" class="st18" width="23" height="9"/>
<path id="Hill" class="st66" d="M1438.39,397.39c0,0,262.67-101.78,354.22-110.89v165.61h-357.33L1438.39,397.39z"/>
<polygon id="Tree_00000170997131654392905080000015302584405549909179_" class="st67" points="1422.83,387.61 1434.39,346.1 
	1441.06,369.83 1449.5,336.5 1468.61,406.5 "/>
<polygon id="Tree_00000076565034489000474980000004273094358572143754_" class="st68" points="1481.72,400.72 1494.61,353.58 
	1510.17,408.06 "/>
<polygon id="Tree_00000116917003024455958410000005850905583366662802_" class="st69" points="1520.83,410.94 1543.72,324.72 
	1569.53,420.06 "/>
<polygon id="Tree_00000153673614534353665290000014885034760884608432_" class="st24" points="1730.17,220.5 1752.61,281.17 
	1731.28,281.17 1731.28,304.11 1729.06,304.11 1729.06,280.94 1707.06,280.94 "/>
<g id="Tree_00000025404259368235641620000008036287552672519561_">
	<polygon class="st70" points="1377.06,280.06 1409.5,392.94 1345.94,392.94 	"/>
	<line class="st71" x1="1377.72" y1="298.94" x2="1377.72" y2="391.39"/>
	<line class="st71" x1="1377.72" y1="354.39" x2="1389.72" y2="344.06"/>
	<line class="st71" x1="1377.72" y1="366.11" x2="1361.28" y2="355.39"/>
</g>
<g id="Tree_00000157269387442342912220000001676004285112658345_">
	<polygon class="st72" points="1289.5,343.42 1370.46,343.42 1329.2,230.2 	"/>
	<line class="st73" x1="1329.2" y1="266.39" x2="1329.2" y2="363.11"/>
	<line class="st73" x1="1329.2" y1="330.12" x2="1349.42" y2="311.89"/>
	<line class="st73" x1="1315.64" y1="287" x2="1329.2" y2="301"/>
</g>
<g id="Decorated_Tree">
	<polygon class="st74" points="1263.83,376.28 1295.17,265.06 1326.28,376.28 	"/>
	<line class="st75" x1="1295.06" y1="372.72" x2="1295.06" y2="281.06"/>
	<line class="st75" x1="1295.06" y1="344.17" x2="1308.83" y2="332.18"/>
	<line class="st75" x1="1295.06" y1="357.5" x2="1279.5" y2="346.5"/>
	<circle class="st76" cx="1298.01" cy="282.93" r="6.38"/>
	<circle class="st77" cx="1283.28" cy="319.73" r="6.22"/>
	<circle class="st78" cx="1306.17" cy="325.96" r="6.22"/>
	<circle class="st79" cx="1277.06" cy="357.5" r="6.22"/>
	<circle class="st76" cx="1315.06" cy="348.17" r="6.22"/>
</g>
<g id="Tree_00000149373284584445623230000015727571302024196006_">
	<polygon class="st80" points="754.01,262.9 781.12,353.17 723.79,358.92 	"/>
	<line class="st81" x1="753.94" y1="277.77" x2="753.94" y2="366.11"/>
	<line class="st81" x1="764.17" y1="314.06" x2="753.94" y2="323.72"/>
	<line class="st81" x1="742.61" y1="325.17" x2="753.94" y2="332.94"/>
</g>
<path class="st8" d="M537.5,381.83c0,0,352.67-107.33,1046.67,31.33v93.33H537.5V381.83z"/>
<g id="Tree_2">
	<polygon class="st82" points="953.25,332.42 971.37,389.38 935.41,389.38 	"/>
	<line class="st83" x1="953.45" y1="389.58" x2="953.45" y2="340.71"/>
	<line class="st83" x1="953.45" y1="375.11" x2="958.32" y2="370.88"/>
	<line class="st83" x1="953.45" y1="383.55" x2="944.77" y2="377.39"/>
</g>
<g id="Tree_1_00000179631680508501211000000005855109930698999951_">
	<polygon class="st84" points="929.73,328.84 952.63,400.78 907.21,400.78 	"/>
	<line class="st85" x1="929.99" y1="401.03" x2="929.99" y2="339.31"/>
	<line class="st85" x1="929.99" y1="382.75" x2="936.14" y2="377.42"/>
	<line class="st85" x1="929.99" y1="393.42" x2="919.03" y2="385.64"/>
</g>
<g id="Tree_with_Snow">
	<polygon class="st86" points="816.8,307.67 839.69,379.61 794.27,379.61 	"/>
	<line class="st87" x1="817.06" y1="379.86" x2="817.06" y2="318.14"/>
	<line class="st87" x1="817.06" y1="361.58" x2="823.21" y2="356.25"/>
	<line class="st87" x1="817.06" y1="372.25" x2="806.1" y2="364.47"/>
	<g id="Snow_00000113310862162231504800000014459450624808904076_">
		<path class="st18" d="M822.41,383.54h25.76c0-7.11-5.77-12.88-12.88-12.88C828.17,370.66,822.41,376.42,822.41,383.54z"/>
		<path class="st18" d="M810.6,383.54h15.03c0-4.15-3.36-7.51-7.51-7.51S810.6,379.39,810.6,383.54z"/>
	</g>
</g>
<g id="Tree">
	<polygon class="st88" points="1543.61,324.08 1581.21,453.42 1504.83,453.42 	"/>
	<line class="st89" x1="1543.61" y1="344.06" x2="1543.61" y2="457.39"/>
	<line class="st89" x1="1543.61" y1="418.33" x2="1559.5" y2="402.94"/>
	<line class="st89" x1="1543.61" y1="433.24" x2="1526.17" y2="422.06"/>
</g>
<path class="st16" d="M515.28,401.97c0,0,259.11-96.74,838.67,90.9V550H515.28V401.97z"/>
<g id="Big_Tree">
	<g>
		<polygon class="st90" points="1105.28,165.83 1190.61,540.5 1015.94,540.5 		"/>
		<line class="st91" x1="1105.5" y1="203.17" x2="1105.5" y2="550"/>
		<line class="st91" x1="1107.72" y1="393.39" x2="1141.06" y2="370.66"/>
		<line class="st91" x1="1105.5" y1="449.83" x2="1060.17" y2="419.61"/>
		<line class="st91" x1="1105.5" y1="358.92" x2="1079.72" y2="343.64"/>
		<line class="st91" x1="1105.5" y1="299.13" x2="1124.39" y2="288.23"/>
	</g>
	<circle class="st92" cx="1079.28" cy="327.61" r="16.44"/>
	<circle class="st92" cx="1083.28" cy="402.94" r="10"/>
	<circle class="st93" cx="1065.99" cy="495.01" r="15.82"/>
	<circle class="st93" cx="1125.04" cy="302.61" r="10.88"/>
	<circle class="st93" cx="1103.5" cy="381.06" r="2.89"/>
	<circle class="st93" cx="1109.33" cy="270.44" r="2.94"/>
	<circle class="st92" cx="1097.06" cy="270.78" r="3.78"/>
	<circle class="st92" cx="1087.1" cy="265.99" r="3.82"/>
	<circle class="st92" cx="1083.58" cy="382.47" r="4.31"/>
	<circle class="st92" cx="1094.59" cy="383.94" r="3.67"/>
	<circle class="st92" cx="1061.39" cy="442.61" r="4.11"/>
	<circle class="st92" cx="1069" cy="452.11" r="3.5"/>
	<circle class="st92" cx="1136.68" cy="504.95" r="3.96"/>
	<circle class="st92" cx="1148.39" cy="505.17" r="3.67"/>
	<circle class="st93" cx="1077" cy="459.33" r="3.72"/>
	<circle class="st93" cx="1155.33" cy="495.56" r="4.06"/>
	<circle class="st94" cx="1138.61" cy="422.06" r="15.56"/>
	<circle class="st94" cx="1109.5" cy="470.39" r="10.22"/>
	<path class="st60" d="M1089.06,225.67c0,0,6.22,35.5,34.22,24.94"/>
	<path class="st60" d="M1123.28,255.61c0,0-15.11,19.11-40,0"/>
	<path class="st60" d="M1138.39,308.98c0,0-32.44,75.74-75.56,42.29"/>
	<path class="st60" d="M1146.83,344.17c0,0-48.89,51.89-87.11,19"/>
	<path class="st60" d="M1171.28,454.72c0,0-60,65.78-123.11-43.56"/>
	<path class="st60" d="M1174.39,464.5c0,0-55.11,86.67-136-7.11"/>
	<g>
		<polygon class="st95" points="1103.28,129.11 1109.61,144.44 1125.78,144.44 1112.56,154.5 1117.78,171.44 1103.28,160.44 
			1089.11,171.44 1094.89,154.5 1080.78,144.28 1098.44,144.28 		"/>
		<polygon class="st96" points="1103.28,129.08 1109.61,144.42 1125.78,144.42 1112.56,154.47 1117.78,171.42 1103.28,160.42 		"/>
	</g>
</g>
<g id="House_7_00000119094303364594640570000009169752280384547768_">
	<rect x="1878.39" y="219.17" class="st97" width="42.11" height="43.92"/>
	<polygon class="st98" points="1920.5,402.11 1878.39,402.11 1878.39,219.17 1920.5,262 	"/>
	<polygon class="st16" points="1920.5,219.17 1878.39,219.17 1878.39,157.83 1920.5,154.42 	"/>
	<rect x="1914.58" y="94" class="st99" width="5.92" height="5.92"/>
	<polygon class="st100" points="1920.5,99.5 1914.58,94 1890.92,113.08 1890.92,160.25 1920.5,160.25 	"/>
	<rect x="1907.08" y="113.83" class="st101" width="12.08" height="12.08"/>
	<rect x="1907.08" y="134.5" class="st102" width="12.42" height="12.42"/>
</g>
<g id="House_6_00000163066002909160655780000012012842895736757658_">
	<polygon class="st103" points="1878.39,121.17 1800.17,121.17 1800.17,80.83 1838.83,80.83 	"/>
	<polygon class="st98" points="1839.28,440.5 1761.06,440.5 1761.06,120.94 1800.17,80.83 1839.28,120.94 	"/>
	<rect x="1839.28" y="129.75" class="st104" width="39.11" height="272.36"/>
	<rect x="1839.28" y="121.17" class="st64" width="39.11" height="8.58"/>
	<g id="Snow_00000149350092769164358040000000765490931247026871_">
		<path class="st18" d="M1843.31,121.17h11.22c0-3.1-2.51-5.61-5.61-5.61C1845.82,115.56,1843.31,118.07,1843.31,121.17z"/>
		<path class="st18" d="M1858.14,121.17h7c0-1.93-1.57-3.5-3.5-3.5S1858.14,119.23,1858.14,121.17z"/>
		<path class="st18" d="M1835.25,98.17h11.61c0-3.21-2.6-5.81-5.81-5.81S1835.25,94.96,1835.25,98.17z"/>
	</g>
	<g id="Red_Window_00000150824485484896453050000008476911915180459176_">
		
			<rect x="1787.11" y="195.55" transform="matrix(-1 -4.490243e-11 4.490243e-11 -1 3601.2222 417.6003)" class="st18" width="27" height="26.5"/>
		
			<rect x="1805.11" y="195.55" transform="matrix(-1 -4.496948e-11 4.496948e-11 -1 3619.2222 404.1003)" class="st32" width="9" height="13"/>
		
			<rect x="1805.11" y="210.55" transform="matrix(-1 -4.496948e-11 4.496948e-11 -1 3619.2222 432.1003)" class="st33" width="9" height="11"/>
		
			<rect x="1795.11" y="195.55" transform="matrix(-1 -4.490642e-11 4.490642e-11 -1 3598.2222 404.1003)" class="st34" width="8" height="13"/>
		
			<rect x="1795.11" y="210.55" transform="matrix(-1 -4.490642e-11 4.490642e-11 -1 3598.2222 432.1003)" class="st34" width="8" height="11"/>
		
			<rect x="1787.11" y="195.55" transform="matrix(-1 -4.502011e-11 4.502011e-11 -1 3582.2222 417.1003)" class="st35" width="8" height="26"/>
		
			<rect x="1804.11" y="221.55" transform="matrix(-1 -4.492907e-11 4.492907e-11 -1 3618.2222 452.1003)" class="st36" width="10" height="9"/>
		
			<rect x="1781.11" y="221.55" transform="matrix(-1 -4.488155e-11 4.488155e-11 -1 3585.2222 452.1003)" class="st18" width="23" height="9"/>
	</g>
	<g id="Green_Window_00000072960841604850382450000015224706024975282847_">
		
			<rect x="1787.11" y="129.75" transform="matrix(-1 -4.490243e-11 4.490243e-11 -1 3601.2222 285.5)" class="st18" width="27" height="26"/>
		
			<rect x="1805.11" y="129.75" transform="matrix(-1 -4.496948e-11 4.496948e-11 -1 3619.2222 272.5)" class="st43" width="9" height="13"/>
		
			<rect x="1805.11" y="144.75" transform="matrix(-1 -4.496948e-11 4.496948e-11 -1 3619.2222 300.5)" class="st43" width="9" height="11"/>
		
			<rect x="1795.11" y="129.75" transform="matrix(-1 -4.490642e-11 4.490642e-11 -1 3598.2222 272.5)" class="st43" width="8" height="13"/>
		
			<rect x="1795.11" y="144.75" transform="matrix(-1 -4.490642e-11 4.490642e-11 -1 3598.2222 300.5)" class="st44" width="8" height="11"/>
		
			<rect x="1787.11" y="129.75" transform="matrix(-1 -4.490642e-11 4.490642e-11 -1 3582.2222 285.5)" class="st45" width="8" height="26"/>
		
			<rect x="1804.11" y="155.75" transform="matrix(-1 -4.502011e-11 4.502011e-11 -1 3618.2222 320.5)" class="st36" width="10" height="9"/>
		
			<rect x="1781.11" y="155.75" transform="matrix(-1 -4.484203e-11 4.484203e-11 -1 3585.2222 320.5)" class="st18" width="23" height="9"/>
	</g>
</g>
<g id="House_5_00000032610797688511149800000002273159241426039218_">
	<polygon class="st105" points="1755.94,341.17 1613.94,341.17 1613.94,286.5 1691.92,286.5 	"/>
	<polygon class="st98" points="1668.39,461.39 1559.5,461.39 1559.5,341.1 1613.94,286.5 1668.39,341.1 	"/>
	<rect x="1668.39" y="349.83" class="st106" width="87.56" height="114.22"/>
	<rect x="1668.39" y="341.17" class="st39" width="87.56" height="8.67"/>
	<g id="Snow_00000045604085653182357250000003945990192394107300_">
		<path class="st18" d="M1721.67,341.17h-24c0-6.63,5.37-12,12-12C1716.29,329.17,1721.67,334.54,1721.67,341.17z"/>
		<path class="st18" d="M1732.67,341.17h-14c0-3.87,3.13-7,7-7C1729.53,334.17,1732.67,337.3,1732.67,341.17z"/>
	</g>
	<g id="Red_Window_00000035522194775717366030000013626425247447360188_">
		
			<rect x="1596.22" y="368.25" transform="matrix(-1 -4.486867e-11 4.486867e-11 -1 3219.4443 763)" class="st18" width="27" height="26.5"/>
		
			<rect x="1614.22" y="368.25" transform="matrix(-1 -4.486867e-11 4.486867e-11 -1 3237.4443 749.5)" class="st32" width="9" height="13"/>
		
			<rect x="1614.22" y="383.25" transform="matrix(-1 -4.486867e-11 4.486867e-11 -1 3237.4443 777.5)" class="st33" width="9" height="11"/>
		
			<rect x="1604.22" y="368.25" transform="matrix(-1 -4.479274e-11 4.479274e-11 -1 3216.4443 749.5)" class="st34" width="8" height="13"/>
		
			<rect x="1604.22" y="383.25" transform="matrix(-1 -4.479274e-11 4.479274e-11 -1 3216.4443 777.5)" class="st34" width="8" height="11"/>
		
			<rect x="1596.22" y="368.25" transform="matrix(-1 -4.502011e-11 4.502011e-11 -1 3200.4443 762.5)" class="st35" width="8" height="26"/>
		
			<rect x="1613.22" y="394.25" transform="matrix(-1 -4.474744e-11 4.474744e-11 -1 3236.4443 797.5)" class="st36" width="10" height="9"/>
		
			<rect x="1590.22" y="394.25" transform="matrix(-1 -4.492108e-11 4.492108e-11 -1 3203.4443 797.5)" class="st18" width="23" height="9"/>
	</g>
	<g id="Green_Window_00000147177688968885257690000000064242375960994219_">
		<rect x="1694.67" y="366.89" class="st18" width="27" height="26"/>
		<rect x="1694.67" y="366.89" class="st43" width="9" height="13"/>
		<rect x="1694.67" y="381.89" class="st43" width="9" height="11"/>
		<rect x="1705.67" y="366.89" class="st43" width="8" height="13"/>
		<rect x="1705.67" y="381.89" class="st44" width="8" height="11"/>
		<rect x="1713.67" y="366.89" class="st45" width="8" height="26"/>
		<rect x="1694.67" y="392.89" class="st36" width="10" height="9"/>
		<rect x="1704.67" y="392.89" class="st18" width="23" height="9"/>
	</g>
	<g id="Snow_00000174566879905285909850000001960374036838081977_">
		<path class="st18" d="M1667.17,311.11h24c0-6.63-5.37-12-12-12C1672.54,299.11,1667.17,304.48,1667.17,311.11z"/>
		<path class="st18" d="M1656.17,311.11h14c0-3.87-3.13-7-7-7C1659.3,304.11,1656.17,307.24,1656.17,311.11z"/>
	</g>
	<circle class="st57" cx="1659.91" cy="349.06" r="2.96"/>
	<circle class="st57" cx="1622.46" cy="356.5" r="2.96"/>
	<circle class="st57" cx="1584.17" cy="355.79" r="2.96"/>
	<circle class="st58" cx="1639.76" cy="354.04" r="2.96"/>
	<circle class="st59" cx="1601.28" cy="357.43" r="2.96"/>
	<circle class="st58" cx="1566.57" cy="351" r="2.96"/>
	<path class="st60" d="M1668.39,342.06c0,0-26.33,11.53-63.14,11.53c-36.81,0-45.75-11.53-45.75-11.53"/>
</g>
<g id="House_4_00000143585073960798404290000010874109083776410270_">
	<polygon class="st107" points="555.58,270.83 436.25,270.83 436.25,211.17 508.08,211.17 	"/>
	<polygon class="st65" points="485.83,439.17 386.67,439.17 386.67,270 437.5,211.17 485.83,270 	"/>
	<rect x="485.83" y="270.83" class="st108" width="69.75" height="168.33"/>
	<rect x="485.83" y="270.83" class="st109" width="69.75" height="10.83"/>
	<circle class="st110" cx="492.96" cy="280" r="2.96"/>
	<circle class="st109" cx="516.83" cy="287.67" r="2.96"/>
	<circle class="st109" cx="544.67" cy="285.17" r="2.96"/>
	<circle class="st111" cx="504.9" cy="284.71" r="2.96"/>
	<circle class="st112" cx="531.08" cy="288.88" r="2.96"/>
	<circle class="st112" cx="554.75" cy="279.17" r="2.96"/>
	<path class="st60" d="M484.58,270.83c0,0,17.17,13.88,41.17,13.88s29.83-13.88,29.83-13.88"/>
	<g id="Red_Window_00000037694952601056565600000007634458795774411683_">
		
			<rect x="423.16" y="320.83" transform="matrix(-1 -4.493573e-11 4.493573e-11 -1 873.3125 668.1667)" class="st18" width="27" height="26.5"/>
		
			<rect x="441.16" y="320.83" transform="matrix(-1 -4.486867e-11 4.486867e-11 -1 891.3125 654.6667)" class="st32" width="9" height="13"/>
		
			<rect x="441.16" y="335.83" transform="matrix(-1 -4.486867e-11 4.486867e-11 -1 891.3125 682.6667)" class="st33" width="9" height="11"/>
		
			<rect x="431.16" y="320.83" transform="matrix(-1 -4.479274e-11 4.479274e-11 -1 870.3125 654.6667)" class="st34" width="8" height="13"/>
		
			<rect x="431.16" y="335.83" transform="matrix(-1 -4.479274e-11 4.479274e-11 -1 870.3125 682.6667)" class="st34" width="8" height="11"/>
		
			<rect x="423.16" y="320.83" transform="matrix(-1 -4.502011e-11 4.502011e-11 -1 854.3125 667.6667)" class="st35" width="8" height="26"/>
		
			<rect x="440.16" y="346.83" transform="matrix(-1 -4.474744e-11 4.474744e-11 -1 890.3125 702.6667)" class="st36" width="10" height="9"/>
		
			<rect x="417.16" y="346.83" transform="matrix(-1 -4.492108e-11 4.492108e-11 -1 857.3125 702.6667)" class="st18" width="23" height="9"/>
	</g>
	<g id="Green_Window_00000065766660016321216030000007486151473321606792_">
		
			<rect x="422.59" y="271.5" transform="matrix(-1 -4.493573e-11 4.493573e-11 -1 872.1875 569)" class="st18" width="27" height="26"/>
		
			<rect x="440.59" y="271.5" transform="matrix(-1 -4.507074e-11 4.507074e-11 -1 890.1875 556)" class="st43" width="9" height="13"/>
		
			<rect x="440.59" y="286.5" transform="matrix(-1 -4.507074e-11 4.507074e-11 -1 890.1875 584)" class="st43" width="9" height="11"/>
		
			<rect x="430.59" y="271.5" transform="matrix(-1 -4.479274e-11 4.479274e-11 -1 869.1875 556)" class="st43" width="8" height="13"/>
		
			<rect x="430.59" y="286.5" transform="matrix(-1 -4.479274e-11 4.479274e-11 -1 869.1875 584)" class="st44" width="8" height="11"/>
		
			<rect x="422.59" y="271.5" transform="matrix(-1 -4.502011e-11 4.502011e-11 -1 853.1875 569)" class="st45" width="8" height="26"/>
		
			<rect x="439.59" y="297.5" transform="matrix(-1 -4.492907e-11 4.492907e-11 -1 889.1875 604)" class="st36" width="10" height="9"/>
		
			<rect x="416.59" y="297.5" transform="matrix(-1 -4.492108e-11 4.492108e-11 -1 856.1875 604)" class="st18" width="23" height="9"/>
	</g>
	<g id="Green_Window_00000068646122610901477460000005855717742196462761_">
		
			<rect x="423.16" y="368" transform="matrix(-1 -4.486867e-11 4.486867e-11 -1 873.3125 762)" class="st18" width="27" height="26"/>
		
			<rect x="441.16" y="368" transform="matrix(-1 -4.486867e-11 4.486867e-11 -1 891.3125 749)" class="st43" width="9" height="13"/>
		
			<rect x="441.16" y="383" transform="matrix(-1 -4.486867e-11 4.486867e-11 -1 891.3125 777)" class="st43" width="9" height="11"/>
		
			<rect x="431.16" y="368" transform="matrix(-1 -4.479274e-11 4.479274e-11 -1 870.3125 749)" class="st43" width="8" height="13"/>
		
			<rect x="431.16" y="383" transform="matrix(-1 -4.479274e-11 4.479274e-11 -1 870.3125 777)" class="st44" width="8" height="11"/>
		
			<rect x="423.16" y="368" transform="matrix(-1 -4.502011e-11 4.502011e-11 -1 854.3125 762)" class="st45" width="8" height="26"/>
		
			<rect x="440.16" y="394" transform="matrix(-1 -4.474744e-11 4.474744e-11 -1 890.3125 797)" class="st36" width="10" height="9"/>
		
			<rect x="417.16" y="394" transform="matrix(-1 -4.492108e-11 4.492108e-11 -1 857.3125 797)" class="st18" width="23" height="9"/>
	</g>
	<g id="Red_Window_00000168099532135025141670000015375349609455962257_">
		<rect x="507.85" y="335" class="st18" width="27" height="26.5"/>
		<rect x="507.85" y="335" class="st32" width="9" height="13"/>
		<rect x="507.85" y="350" class="st33" width="9" height="11"/>
		<rect x="518.85" y="335" class="st34" width="8" height="13"/>
		<rect x="518.85" y="350" class="st34" width="8" height="11"/>
		<rect x="526.85" y="335" class="st35" width="8" height="26"/>
		<rect x="507.85" y="361" class="st36" width="10" height="9"/>
		<rect x="517.85" y="361" class="st18" width="23" height="9"/>
	</g>
</g>
<g id="House_2_00000179635037588891575780000001160250803643972018_">
	<polygon class="st113" points="155.5,119.17 275.67,119.08 275.67,58.33 203.17,58.33 	"/>
	<rect x="155.5" y="119.17" class="st53" width="71.33" height="198.67"/>
	<path class="st0" d="M226.72,406.94h97.67V119.26l-48.83-61.65l-48.83,61.65C226.72,215.15,226.72,311.05,226.72,406.94z"/>
	<g id="Red_Window_00000003784544950494146470000018359660739720475555_">
		<rect x="264.28" y="185.75" class="st18" width="27.72" height="28.97"/>
		<rect x="265" y="185.75" class="st32" width="9" height="13"/>
		<rect x="265" y="200.75" class="st33" width="9" height="11"/>
		<rect x="276" y="185.75" class="st34" width="8" height="13"/>
		<rect x="276" y="200.75" class="st34" width="8" height="11"/>
		<rect x="284" y="185.75" class="st35" width="8" height="26"/>
		<rect x="265" y="211.75" class="st36" width="10" height="9"/>
		<rect x="275" y="211.75" class="st18" width="23" height="9"/>
	</g>
	<g id="Green_Window_00000041275860174599097300000002098678052840260500_">
		<rect x="264.28" y="119.04" class="st18" width="27.72" height="28.97"/>
		<rect x="265" y="119.08" class="st43" width="9" height="13"/>
		<rect x="265" y="134.08" class="st43" width="9" height="11"/>
		<rect x="276" y="119.08" class="st43" width="8" height="13"/>
		<rect x="276" y="134.08" class="st44" width="8" height="11"/>
		<rect x="284" y="119.08" class="st45" width="8" height="26"/>
		<rect x="265" y="145.08" class="st36" width="10" height="9"/>
		<rect x="275" y="145.08" class="st18" width="23" height="9"/>
	</g>
	<g id="Red_Window_00000016792097649405455540000004792111203117454480_">
		<rect x="174.83" y="185.75" class="st18" width="27" height="28.97"/>
		
			<rect x="192.83" y="185.75" transform="matrix(-1 -4.476742e-11 4.476742e-11 -1 394.6667 384.5)" class="st32" width="9" height="13"/>
		
			<rect x="192.83" y="200.75" transform="matrix(-1 -4.476742e-11 4.476742e-11 -1 394.6667 412.5)" class="st33" width="9" height="11"/>
		
			<rect x="182.83" y="185.75" transform="matrix(-1 -4.502011e-11 4.502011e-11 -1 373.6667 384.5)" class="st34" width="8" height="13"/>
		
			<rect x="182.83" y="200.75" transform="matrix(-1 -4.502011e-11 4.502011e-11 -1 373.6667 412.5)" class="st34" width="8" height="11"/>
		
			<rect x="174.83" y="185.75" transform="matrix(-1 -4.479274e-11 4.479274e-11 -1 357.6667 397.5)" class="st35" width="8" height="26"/>
		
			<rect x="191.83" y="211.75" transform="matrix(-1 -4.483803e-11 4.483803e-11 -1 393.6667 432.5)" class="st36" width="10" height="9"/>
		
			<rect x="168.83" y="211.75" transform="matrix(-1 -4.492108e-11 4.492108e-11 -1 360.6667 432.5)" class="st18" width="23" height="9"/>
	</g>
	<rect x="223.67" y="45.83" class="st113" width="16.42" height="16.42"/>
	<rect x="240.08" y="45.83" class="st56" width="18.08" height="16.42"/>
</g>
<g id="House_3_00000069364035848447459480000013644415508955237044_">
	<rect x="256.33" y="347.33" class="st114" width="64.5" height="60.83"/>
	<rect x="256.33" y="335.5" class="st115" width="64.5" height="11.83"/>
	<polygon class="st116" points="320.83,416.17 411.33,416.17 411.33,335.5 366.08,291.17 320.83,335.5 	"/>
	<polygon class="st117" points="256.33,335.5 320.83,335.5 366.08,291.17 300.72,291.17 	"/>
	<g id="Red_Window_00000119106659147418958930000012625456315356124327_">
		<rect x="353.67" y="347.33" class="st18" width="27" height="26.5"/>
		<rect x="353.67" y="347.33" class="st32" width="9" height="13"/>
		<rect x="353.67" y="362.33" class="st33" width="9" height="11"/>
		<rect x="364.67" y="347.33" class="st34" width="8" height="13"/>
		<rect x="364.67" y="362.33" class="st34" width="8" height="11"/>
		<rect x="372.67" y="347.33" class="st35" width="8" height="26"/>
		<rect x="353.67" y="373.33" class="st36" width="10" height="9"/>
		<rect x="363.67" y="373.33" class="st18" width="23" height="9"/>
	</g>
	<g id="Snow_00000026162213199260677050000016482199418673986738_">
		<path class="st18" d="M325.56,291.17h-24c0-6.63,5.37-12,12-12C320.18,279.17,325.56,284.54,325.56,291.17z"/>
		<path class="st18" d="M336.56,291.17h-14c0-3.87,3.13-7,7-7C333.42,284.17,336.56,287.3,336.56,291.17z"/>
	</g>
</g>
<g id="House_1_00000111910269894661188970000000959259795275901322_">
	<polygon class="st118" points="0.5,317.83 9.5,312.08 9.5,307.5 0.5,307.5 	"/>
	<rect id="Garage" x="155.5" y="306.5" class="st119" width="84" height="92"/>
	<polygon class="st118" points="239.5,306.5 102.5,306.5 102.5,274.5 187.5,274.5 	"/>
	<rect x="23.5" y="237.5" class="st120" width="18" height="24"/>
	<rect x="8.5" y="237.5" class="st118" width="18" height="24"/>
	<polygon class="st118" points="0.5,312.5 78.5,266.31 81.5,261.5 0.5,261.5 	"/>
	<g id="Snow">
		<path class="st18" d="M194.5,306.5h-24c0-6.63,5.37-12,12-12S194.5,299.87,194.5,306.5z"/>
		<path class="st18" d="M205.5,306.5h-14c0-3.87,3.13-7,7-7S205.5,302.63,205.5,306.5z"/>
	</g>
	<polygon id="Front_House" class="st0" points="81.5,259.5 155.5,306.5 155.5,397.94 9.5,397.88 9.5,397.88 9.5,307.5 0.5,313.5 
		0.5,311.5 	"/>
	<g id="Red_Window_00000059291036687493091100000017740802521425675920_">
		<rect x="38.5" y="334.5" class="st18" width="27" height="26.5"/>
		<rect x="38.5" y="334.5" class="st32" width="9" height="13"/>
		<rect x="38.5" y="349.5" class="st33" width="9" height="11"/>
		<rect x="49.5" y="334.5" class="st34" width="8" height="13"/>
		<rect x="49.5" y="349.5" class="st34" width="8" height="11"/>
		<rect x="57.5" y="334.5" class="st35" width="8" height="26"/>
		<rect x="38.5" y="360.5" class="st36" width="10" height="9"/>
		<rect x="48.5" y="360.5" class="st18" width="23" height="9"/>
	</g>
	<g id="Green_Window_00000032607392642756575180000016608555712837540236_">
		<rect x="98.5" y="334.5" class="st18" width="27" height="26"/>
		<rect x="98.5" y="334.5" class="st43" width="9" height="13"/>
		<rect x="98.5" y="349.5" class="st43" width="9" height="11"/>
		<rect x="109.5" y="334.5" class="st43" width="8" height="13"/>
		<rect x="109.5" y="349.5" class="st44" width="8" height="11"/>
		<rect x="117.5" y="334.5" class="st45" width="8" height="26"/>
		<rect x="98.5" y="360.5" class="st36" width="10" height="9"/>
		<rect x="108.5" y="360.5" class="st18" width="23" height="9"/>
	</g>
	<rect x="167.5" y="316.5" class="st121" width="54" height="23"/>
	<rect x="167.5" y="339.5" class="st122" width="54" height="59"/>
	<rect x="221.5" y="316.5" class="st123" width="8" height="82"/>
	<polygon class="st124" points="0.5,318.19 9.5,312.08 9.5,397.94 0.5,397.94 	"/>
</g>
<g id="Tree_2_00000036244742257605456310000004140365714287368633_">
	<polygon class="st125" points="594.61,287.67 637.28,403.61 550.32,403.61 	"/>
	<line class="st126" x1="595.94" y1="322.5" x2="595.94" y2="445.17"/>
	<line class="st126" x1="595.94" y1="385.5" x2="614.83" y2="367.83"/>
	<line class="st126" x1="595.94" y1="358.28" x2="580.83" y2="343.83"/>
</g>
<g id="Tree_1_00000111891524434009300550000018400636369240454577_">
	<g id="Decorated_Tree_00000039821536610653452280000011291979736965637814_">
		<polygon class="st74" points="521.82,444.24 556.61,320.72 591.17,444.24 		"/>
		<line class="st75" x1="556.49" y1="440.29" x2="556.49" y2="338.49"/>
		<line class="st75" x1="556.49" y1="408.58" x2="571.79" y2="395.27"/>
		<line class="st75" x1="556.49" y1="423.39" x2="539.22" y2="411.17"/>
		<circle class="st76" cx="561.75" cy="345.57" r="7.08"/>
		<circle class="st77" cx="543.41" cy="395.01" r="6.91"/>
		<circle class="st78" cx="571.05" cy="374.54" r="6.91"/>
		<circle class="st79" cx="529.59" cy="426.84" r="6.91"/>
		<circle class="st76" cx="575.74" cy="417.28" r="6.91"/>
	</g>
	<g id="Snow_00000016761911631447485720000013040676267326868390_">
		<path class="st18" d="M607.25,449.21h-36.82c0-10.17,8.24-18.41,18.41-18.41S607.25,439.04,607.25,449.21z"/>
		<path class="st18" d="M624.13,449.21h-21.48c0-5.93,4.81-10.74,10.74-10.74S624.13,443.28,624.13,449.21z"/>
	</g>
</g>
<g id="Tree_3">
	<polygon class="st68" points="1754.39,305.76 1797.56,423.02 1717.11,433.24 	"/>
	<line class="st127" x1="1755.62" y1="326.5" x2="1755.62" y2="417.83"/>
	<line class="st127" x1="1755.62" y1="387" x2="1768.21" y2="374.42"/>
	<line class="st127" x1="1755.81" y1="399.64" x2="1738.31" y2="388.14"/>
</g>
<g id="Tree_3_00000116199308895389795470000007276215555040299188_">
	<polygon class="st68" points="1494.04,351.92 1537.2,469.18 1456.76,479.4 	"/>
	<line class="st128" x1="1495.27" y1="372.66" x2="1495.27" y2="463.99"/>
	<line class="st128" x1="1495.27" y1="433.16" x2="1507.85" y2="420.58"/>
	<line class="st128" x1="1495.46" y1="445.8" x2="1477.96" y2="434.3"/>
</g>
<g id="Snow_00000052788102486717054310000006553523213788344752_">
	<path class="st18" d="M1154.53,524.71h36.82c0-10.17-8.24-18.41-18.41-18.41C1162.77,506.29,1154.53,514.54,1154.53,524.71z"/>
	<path class="st18" d="M1137.65,524.71h21.48c0-5.93-4.81-10.74-10.74-10.74C1142.46,513.97,1137.65,518.77,1137.65,524.71z"/>
</g>
<g id="Snow_00000088123314124428326600000007197326284640450993_">
	<path class="st18" d="M1549.73,447.8l36.19-6.8c-1.88-9.99-11.5-16.57-21.5-14.69C1554.43,428.18,1547.85,437.8,1549.73,447.8z"/>
	<path class="st18" d="M1533.15,450.92l21.11-3.97c-1.1-5.83-6.71-9.67-12.54-8.57C1535.89,439.47,1532.05,445.09,1533.15,450.92z"
		/>
</g>
<g id="Snow_00000083776125838861436890000004624081441811362736_">
	<path class="st18" d="M333.01,409.14h-40.34c0-10.17,9.03-18.41,20.17-18.41C323.98,390.73,333.01,398.97,333.01,409.14z"/>
	<path class="st18" d="M351.5,409.14h-23.53c0-5.93,5.27-10.74,11.77-10.74C346.23,398.4,351.5,403.21,351.5,409.14z"/>
</g>
<path class="st18" d="M0.5,397.25c0,0,350.14-31.16,796,84.96c236,61.46,540,0,540,0s418-91.29,584-96.71V550H0.5V397.25z"/>
</svg>
