<?xml version="1.0" encoding="utf-8"?>
<!-- Generator: Adobe Illustrator 28.0.0, SVG Export Plug-In . SVG Version: 6.00 Build 0)  -->
<svg version="1.1" id="Layer_1" xmlns="http://www.w3.org/2000/svg" xmlns:xlink="http://www.w3.org/1999/xlink" x="0px" y="0px"
	 viewBox="0 0 138 99" style="enable-background:new 0 0 138 99;" xml:space="preserve">
<style type="text/css">
	.st0{fill:#BC443E;}
	.st1{fill:#FAD7D7;}
	.st2{fill:#FDEAEB;}
	.st3{fill:#FCD8D5;}
	.st4{fill:#FFFFFF;}
	.st5{fill:none;stroke:#F69899;stroke-linecap:round;stroke-linejoin:round;stroke-miterlimit:10;}
	.st6{fill:#F69692;}
	.st7{fill:#FBD2D2;}
	.st8{fill:#FEECE8;}
	.st9{fill:none;stroke:#F69899;stroke-width:0.5;stroke-miterlimit:10;}
	.st10{fill:#0E2B2C;}
	.st11{fill:#F37D81;}
	.st12{fill:#7E2A2A;}
	.st13{fill:#F69696;}
	.st14{fill:#CA3E51;}
	.st15{fill:#CB3E50;}
	.st16{fill:#9D3A3A;}
	.st17{fill:#FFF5F1;}
	.st18{fill:#F15A5A;}
	.st19{fill:none;stroke:#FFFFFF;stroke-width:0.25;stroke-miterlimit:10;}
	.st20{fill:none;stroke:#FFFFFF;stroke-width:0.25;stroke-linecap:round;stroke-miterlimit:10;}
	.st21{fill:#3E1612;}
	.st22{fill:#B8413D;}
	.st23{fill:#F9BFC2;}
	.st24{fill:#E28A93;}
	.st25{fill:#F15C58;}
	.st26{fill:#FAC1C1;}
	.st27{fill:#F4817C;}
	.st28{fill:#FBD2DC;}
	.st29{fill:#FEECEA;}
	.st30{fill:#FBD3D6;}
	.st31{fill:#FDEAED;}
	.st32{fill:#341317;}
	.st33{fill:#F69694;}
	.st34{fill:#7E2B2E;}
	.st35{fill:#F1595A;}
	.st36{fill:#FCD6D8;}
	.st37{fill:#F59498;}
	.st38{fill:#C74051;}
	.st39{fill:#717E84;}
	.st40{fill:#2A7372;}
	.st41{fill:none;stroke:#205457;stroke-width:2;stroke-linecap:round;stroke-miterlimit:10;}
	.st42{fill:#F15759;}
	.st43{fill:none;stroke:#CB3E50;stroke-width:0.25;stroke-miterlimit:10;}
	.st44{fill:none;stroke:#FFF5F1;stroke-width:0.5;stroke-linecap:round;stroke-miterlimit:10;}
	.st45{fill:none;stroke:#FFF5F1;stroke-linecap:round;stroke-miterlimit:10;}
	.st46{fill:#F15B5B;}
	.st47{fill:#F38081;}
	.st48{fill:#EE5A50;}
	.st49{fill:#C73F4D;}
	.st50{fill:#210F0F;}
	.st51{fill:#0E2C2E;}
	.st52{fill:#DC4E4C;}
	.st53{fill:#0D2A2B;}
	.st54{fill:#277470;}
	.st55{fill:#F69695;}
	.st56{fill:#401515;}
	.st57{fill:#7F2B2B;}
	.st58{fill:#F15A5B;}
	.st59{fill:#BE4242;}
	.st60{fill:#FDE7EE;}
	.st61{fill:#DBB8B4;}
	.st62{fill:none;stroke:#000000;stroke-width:0.25;stroke-miterlimit:10;}
	.st63{fill:none;stroke:#2A726F;stroke-width:9;stroke-linecap:round;stroke-miterlimit:10;}
	.st64{fill:#1C484A;}
	.st65{fill:#F2F2F9;}
	.st66{fill:none;stroke:#1A4748;stroke-width:3;stroke-linecap:round;stroke-miterlimit:10;}
	.st67{fill:none;stroke:#1A4748;stroke-width:4;stroke-linecap:round;stroke-miterlimit:10;}
	.st68{fill:#1A484E;}
</style>
<rect x="29.85" y="37.42" class="st0" width="13.81" height="2.32"/>
<circle class="st1" cx="36.82" cy="11.73" r="1.22"/>
<circle class="st1" cx="36.85" cy="15.61" r="3.88"/>
<circle class="st1" cx="30.79" cy="16.34" r="1.38"/>
<circle class="st1" cx="42.87" cy="16.34" r="1.38"/>
<path class="st1" d="M43.44,37.86H30.21c-1.15,0-2.08-0.93-2.08-2.08V18.51c0-1.15,0.93-2.08,2.08-2.08h13.23
	c1.15,0,2.08,0.93,2.08,2.08v17.26C45.52,36.93,44.59,37.86,43.44,37.86z"/>
<circle class="st2" cx="36.86" cy="17.8" r="3.24"/>
<path class="st2" d="M42.01,36.37H31.66c-1.15,0-2.08-0.93-2.08-2.08V20.57c0-1.15,0.93-2.08,2.08-2.08h10.35
	c1.15,0,2.08,0.93,2.08,2.08v13.72C44.1,35.44,43.16,36.37,42.01,36.37z"/>
<circle class="st3" cx="36.83" cy="26.13" r="6.21"/>
<circle class="st4" cx="36.85" cy="26.07" r="4.93"/>
<polyline class="st5" points="36.67,22.55 36.67,26.23 38.99,26.23 "/>
<rect x="29.85" y="39.31" class="st6" width="13.81" height="27.04"/>
<rect x="31.48" y="39.75" class="st7" width="5.19" height="24.98"/>
<rect x="36.67" y="39.75" class="st8" width="5.46" height="22.97"/>
<line class="st9" x1="38.31" y1="39.75" x2="38.31" y2="60.87"/>
<line class="st9" x1="35.9" y1="39.75" x2="35.9" y2="51.19"/>
<path class="st4" d="M35.96,54.65L35.96,54.65c-0.39,0-0.71-0.32-0.71-0.71v-2.61c0-0.39,0.32-0.71,0.71-0.71h0
	c0.39,0,0.71,0.32,0.71,0.71v2.61C36.67,54.33,36.35,54.65,35.96,54.65z"/>
<rect x="84.99" y="48.32" class="st10" width="52.46" height="44.7"/>
<rect x="84.99" y="48.32" class="st11" width="45.69" height="5"/>
<rect x="124.56" y="53.31" class="st12" width="6.11" height="4.86"/>
<rect x="118.45" y="63.22" class="st12" width="6.11" height="4.86"/>
<rect x="124.56" y="63.22" class="st13" width="6.11" height="4.86"/>
<rect x="118.45" y="53.31" class="st13" width="6" height="4.86"/>
<rect x="118.45" y="58.18" class="st14" width="12.23" height="5.05"/>
<rect x="118.45" y="68.07" class="st14" width="12.23" height="5.05"/>
<rect x="118.45" y="73.12" class="st12" width="6.11" height="4.86"/>
<rect x="124.56" y="73.12" class="st13" width="6.11" height="4.86"/>
<rect x="118.45" y="77.98" class="st12" width="12.23" height="5.05"/>
<rect x="118.45" y="83.03" class="st13" width="6.11" height="4.86"/>
<rect x="124.56" y="83.03" class="st15" width="6.11" height="4.86"/>
<g>
	<g>
		<g>
			<g>
				<path class="st16" d="M118.2,54.28c-0.27-0.31-0.24-0.79,0.08-1.07l0.19-0.17l0.47,1.48C118.68,54.57,118.39,54.5,118.2,54.28z"
					/>
				<path class="st16" d="M120.15,47.91c-0.21-0.36-0.1-0.83,0.26-1.04c0.12-0.07,0.26-0.14,0.41-0.2l0.47,1.45
					c-0.04,0.03-0.08,0.05-0.1,0.06C120.83,48.38,120.36,48.27,120.15,47.91z"/>
				<path class="st17" d="M118.94,54.51l-0.47-1.48l0.87-0.76l0.51,1.58l-0.57,0.5C119.18,54.44,119.06,54.49,118.94,54.51z"/>
				<path class="st17" d="M121.29,48.12l-0.47-1.45c0.3-0.13,0.65-0.24,1.03-0.27l0.51,1.55C121.96,47.83,121.51,48.01,121.29,48.12
					z"/>
				<polygon class="st16" points="119.85,53.86 119.33,52.28 120.2,51.51 120.71,53.09 				"/>
				<path class="st16" d="M122.36,47.95l-0.51-1.55c0.34-0.03,0.68-0.01,1.02,0.1c0.06,0.02,0.11,0.04,0.16,0.07l1.1,3.37
					c-0.13,0.21-0.27,0.38-0.39,0.5l-0.45,0.39l-0.52-1.59c0.12-0.16,0.32-0.51,0.06-0.92C122.71,48.11,122.54,48,122.36,47.95z"/>
				<polygon class="st17" points="120.71,53.09 120.2,51.51 121.04,50.78 121.55,52.35 				"/>
				<polygon class="st16" points="121.55,52.35 121.04,50.78 121.91,50.02 122.42,51.59 				"/>
				<path class="st17" d="M122.42,51.59l-0.51-1.58l0.81-0.71c0.01-0.01,0.04-0.04,0.06-0.07l0.52,1.59L122.42,51.59z"/>
				<path class="st17" d="M124.14,49.94l-1.1-3.37c0.4,0.16,0.77,0.45,1.08,0.93C124.72,48.44,124.49,49.34,124.14,49.94z"/>
			</g>
		</g>
	</g>
</g>
<path class="st18" d="M118.94,49.7l4.57,2.58l-2.69,4.76l2.22,1.36c0,0,1.83,1.4,0.73,3.35c-1.11,1.95-3.21,1.07-3.21,1.07
	l-4.93-2.78c0,0-1.75-0.92-0.61-3.11C116.15,54.74,118.94,49.7,118.94,49.7z"/>
<path class="st18" d="M107.59,49.7l4.57,2.58l-2.69,4.76l2.22,1.36c0,0,1.83,1.4,0.73,3.35c-1.11,1.95-3.21,1.07-3.21,1.07
	l-4.93-2.78c0,0-1.75-0.92-0.61-3.11C104.79,54.74,107.59,49.7,107.59,49.7z"/>
<circle class="st19" cx="107.72" cy="49.93" r="0.84"/>
<circle class="st19" cx="119" cy="49.93" r="0.84"/>
<path class="st20" d="M115.62,55.9c0,0,2.94,1.38,1.18,4.89"/>
<path class="st20" d="M121.04,62.93c0,0-0.89-3.55,2-4.43"/>
<path class="st20" d="M104.31,55.79c0,0,2.94,1.38,1.18,4.89"/>
<path class="st20" d="M109.73,62.83c0,0-0.89-3.55,2-4.43"/>
<polygon class="st21" points="115.59,42.46 118.61,42.46 119.85,48.28 116.82,48.28 "/>
<polygon class="st22" points="119.67,38.54 110.29,38.54 107.86,48.28 117.23,48.28 "/>
<g>
	<polygon class="st23" points="114.24,43.31 117.56,42.02 118.16,39.65 111.2,39.65 109.87,44.96 113.94,43.02 	"/>
	<path class="st24" d="M114.24,43.31l-4.38,1.7l-0.59,2.35h6.96l1.29-5.14c-0.82,0.66-2.35,1.96-2.35,1.96L114.24,43.31z"/>
	<polygon class="st23" points="113.94,43.02 109.87,44.96 109.86,45.02 114.24,43.31 	"/>
	<path class="st23" d="M114.24,43.31l0.92,0.88c0,0,1.53-1.3,2.35-1.96l0.05-0.21L114.24,43.31z"/>
</g>
<polygon class="st21" points="103.01,42.46 106.03,41.28 107.26,48.28 104.24,48.28 "/>
<polygon class="st25" points="107.4,36.17 98.75,36.17 95.67,48.28 104.32,48.28 "/>
<polygon class="st26" points="106.41,37.19 99.22,37.19 96.66,47.26 103.86,47.26 "/>
<polygon class="st27" points="102.39,37.72 100.2,37.72 99.41,40.36 101.61,40.36 "/>
<polygon class="st27" points="105.13,38.33 103.3,38.33 102.52,40.97 104.35,40.97 "/>
<polygon class="st27" points="101.98,40.9 99.23,40.9 98.25,44.72 101,44.72 "/>
<polygon class="st27" points="104.17,43.46 101.97,43.46 101.04,46.95 103.23,46.95 "/>
<rect x="90.58" y="5.39" class="st28" width="34.71" height="26.64"/>
<rect x="91.53" y="6.34" class="st29" width="32.87" height="24.82"/>
<rect x="94.78" y="8.67" class="st30" width="26.39" height="19.88"/>
<path class="st4" d="M94.78,16.1c0,0,5.35-0.95,12.11,2.53c1.18,0.61,6.38,0.11,11.64-1.64c0.99-0.33,2.64-0.07,2.64-0.07v0.92v2.56
	H94.78V16.1z"/>
<path class="st31" d="M94.78,19.57v2.5c0,0,1.93-2.37,6.15-1.45s7.94,3.32,11.21,3.48s7.85-2.41,8.55-2.27
	c0.33,0.07,0.47,0.2,0.47,0.2V17.8c0,0-3.16-0.8-6.91,1.52s-9.76,0-9.76,0S99.57,17.22,94.78,19.57z"/>
<rect x="98.71" y="84.34" class="st32" width="14.79" height="5.44"/>
<path class="st33" d="M98.71,86.74h8.5c0,0,2.22,0,2.22,2.34c0,2.34,3.4,1.74,3.4,1.74v2H99.67L98.71,86.74z"/>
<polygon class="st32" points="106.62,85.35 116.04,85.35 117.29,80.78 116.04,76.26 106.62,76.26 "/>
<polygon class="st34" points="94.98,85.35 111.11,85.35 109.86,80.8 111.11,76.26 94.98,76.26 "/>
<circle class="st35" cx="111.06" cy="78.69" r="2.43"/>
<circle class="st35" cx="116" cy="78.69" r="2.43"/>
<circle class="st35" cx="113.61" cy="83.08" r="2.43"/>
<circle class="st35" cx="108.63" cy="82.91" r="2.43"/>
<path class="st35" d="M118.45,85.35c-1.34,0-2.43-1.09-2.43-2.43c0-1.34,1.09-2.43,2.43-2.43V85.35z"/>
<g>
	<rect x="103.27" y="87.07" class="st36" width="2.3" height="5.75"/>
	<polygon class="st37" points="103.27,79.27 103.27,87.07 105.57,87.07 105.57,77.75 	"/>
	<polygon class="st38" points="105.57,73.03 103.27,73.03 103.27,79.27 105.57,77.75 	"/>
</g>
<path class="st33" d="M92.15,73.36h21.83c1.23,0,2.24-1,2.24-2.24l0,0H92.15V73.36z"/>
<rect x="105.93" y="63.59" class="st39" width="3.91" height="7.54"/>
<rect x="106.42" y="65.05" class="st4" width="2.93" height="5.49"/>
<path class="st4" d="M105.43,70.2h-9.71c-0.28,0-0.5-0.22-0.5-0.5v-0.45h10.72v0.45C105.93,69.98,105.7,70.2,105.43,70.2z"/>
<polygon class="st4" points="97.13,70.06 98.01,71.13 104.09,71.13 104.77,70.06 "/>
<polygon class="st40" points="73.64,9.38 103.27,92.91 43.23,92.91 "/>
<polyline class="st41" points="73.35,18.93 73.35,40.49 73.35,92.91 "/>
<line class="st41" x1="73.35" y1="63.37" x2="87.75" y2="59.03"/>
<line class="st41" x1="73.35" y1="56.2" x2="60.4" y2="52.19"/>
<line class="st41" x1="73.35" y1="47.79" x2="83.67" y2="45.03"/>
<line class="st41" x1="66.88" y1="38.59" x2="73.35" y2="40.89"/>
<line class="st41" x1="73.35" y1="32.67" x2="78.81" y2="31.16"/>
<line class="st41" x1="73.35" y1="26.23" x2="69.34" y2="24.78"/>
<line class="st41" x1="73.68" y1="77.96" x2="92.15" y2="73.69"/>
<circle class="st15" cx="88.93" cy="76.26" r="3.22"/>
<circle class="st15" cx="80.55" cy="47.79" r="3.12"/>
<circle class="st42" cx="65" cy="55.81" r="3.35"/>
<circle class="st42" cx="68.78" cy="38.22" r="3.32"/>
<circle class="st15" cx="85.6" cy="51.68" r="0.77"/>
<circle class="st15" cx="82.89" cy="54.99" r="0.79"/>
<circle class="st15" cx="79.8" cy="57.35" r="0.76"/>
<circle class="st15" cx="76" cy="39.65" r="0.81"/>
<circle class="st15" cx="79.8" cy="40.42" r="0.76"/>
<path class="st43" d="M78.15,29"/>
<g>
	<g>
		<g>
			<g>
				<path class="st16" d="M78.87,28.66c0.38,0.22,0.5,0.71,0.28,1.08l-0.13,0.23l-0.95-1.3C78.31,28.53,78.62,28.51,78.87,28.66z"/>
				<path class="st16" d="M78.99,35.57c0.32,0.28,0.36,0.78,0.08,1.1c-0.09,0.11-0.21,0.22-0.34,0.33l-0.94-1.28
					c0.04-0.04,0.07-0.07,0.09-0.09C78.17,35.31,78.67,35.28,78.99,35.57z"/>
				<path class="st17" d="M78.07,28.67l0.95,1.3L78.4,31l-1.01-1.39l0.4-0.67C77.86,28.82,77.97,28.74,78.07,28.67z"/>
				<path class="st17" d="M77.79,35.72L78.73,37c-0.26,0.22-0.58,0.44-0.93,0.6l-0.99-1.37C77.23,36.22,77.62,35.91,77.79,35.72z"/>
				<polygon class="st16" points="77.39,29.61 78.4,31 77.78,32.03 76.77,30.64 				"/>
				<path class="st16" d="M76.81,36.23l0.99,1.37c-0.32,0.13-0.68,0.22-1.04,0.22c-0.06,0-0.13-0.01-0.18-0.01l-2.16-2.97
					c0.06-0.25,0.14-0.47,0.23-0.62l0.32-0.53l1.02,1.4c-0.07,0.2-0.15,0.61,0.24,0.92C76.41,36.18,76.61,36.24,76.81,36.23z"/>
				<polygon class="st17" points="76.77,30.64 77.78,32.03 77.19,33.03 76.18,31.64 				"/>
				<polygon class="st16" points="76.18,31.64 77.19,33.03 76.58,34.05 75.58,32.66 				"/>
				<path class="st17" d="M75.58,32.66l1.01,1.39l-0.57,0.95c-0.01,0.02-0.02,0.05-0.04,0.09l-1.02-1.4L75.58,32.66z"/>
				<path class="st17" d="M74.42,34.85l2.16,2.97c-0.45-0.04-0.92-0.21-1.36-0.58C74.32,36.51,74.26,35.54,74.42,34.85z"/>
			</g>
		</g>
	</g>
</g>
<g>
	<g>
		<g>
			<g>
				<path class="st16" d="M65.52,46.49c0.43-0.33,1.04-0.27,1.38,0.16l0.2,0.25l-1.91,0.53C65.13,47.1,65.23,46.73,65.52,46.49z"/>
				<path class="st16" d="M73.58,49.34c0.48-0.26,1.06-0.08,1.32,0.39c0.08,0.15,0.16,0.34,0.24,0.54l-1.89,0.53
					c-0.02-0.05-0.05-0.1-0.07-0.13C72.93,50.18,73.11,49.59,73.58,49.34z"/>
				<path class="st17" d="M65.19,47.43l1.91-0.53l0.93,1.16l-2.05,0.57l-0.61-0.77C65.26,47.74,65.22,47.59,65.19,47.43z"/>
				<path class="st17" d="M73.24,50.79l1.89-0.53c0.15,0.39,0.26,0.85,0.28,1.34l-2.01,0.56C73.59,51.67,73.38,51.08,73.24,50.79z"
					/>
				<polygon class="st16" points="65.98,48.63 68.03,48.06 68.96,49.21 66.91,49.78 				"/>
				<path class="st16" d="M73.41,52.17l2.01-0.56c0.03,0.44-0.02,0.88-0.18,1.31c-0.03,0.07-0.06,0.13-0.1,0.2l-4.37,1.22
					c-0.26-0.17-0.48-0.36-0.63-0.53l-0.48-0.59l2.07-0.57c0.2,0.17,0.63,0.43,1.17,0.12C73.18,52.6,73.33,52.39,73.41,52.17z"/>
				<polygon class="st17" points="66.91,49.78 68.96,49.21 69.86,50.32 67.81,50.9 				"/>
				<polygon class="st16" points="67.81,50.9 69.86,50.32 70.79,51.48 68.74,52.05 				"/>
				<path class="st17" d="M68.74,52.05l2.05-0.57l0.85,1.07c0.02,0.02,0.05,0.05,0.09,0.09l-2.07,0.57L68.74,52.05z"/>
				<path class="st17" d="M70.77,54.33l4.37-1.22c-0.23,0.5-0.62,0.97-1.26,1.33C72.65,55.16,71.52,54.83,70.77,54.33z"/>
			</g>
		</g>
	</g>
</g>
<path class="st44" d="M66.14,29.49c0,0,5.87,12.89,17.57,8.37"/>
<path class="st44" d="M84.42,39.92c0,0-8.11,9.86-20.51-4.73"/>
<path class="st45" d="M86.7,46.23"/>
<path class="st44" d="M89.63,54.25c0,0-12.45,17.79-34.67,2.67"/>
<path class="st44" d="M100.02,83.4c0,0-22.79,12.62-44.35-11.31"/>
<path class="st44" d="M100.64,84.71c0,0-17.27,14.59-48.78-5.65"/>
<path class="st44" d="M86.7,46.23c0,0-8.33,22.09-30.2,7.8"/>
<path class="st18" d="M79.12,60.65c-1.05,0-1.75,2.5-1.75,3.59c0,1.1,0.53,2.28,1.93,2.28s1.88-1.23,1.88-2.24
	S80.26,60.65,79.12,60.65z"/>
<path class="st18" d="M75.76,20.79c-1.05,0-1.75,2.5-1.75,3.59s0.53,2.28,1.93,2.28c1.4,0,1.88-1.23,1.88-2.24
	S76.9,20.79,75.76,20.79z"/>
<g>
	<polygon class="st46" points="73.39,-0.04 72.04,3.91 68.13,3.94 71.38,6.31 70.13,10.25 73.39,7.92 73.39,7.92 73.39,-0.04 	"/>
	<polygon class="st47" points="75.6,6.41 79.05,3.81 74.73,3.81 73.39,-0.04 73.39,7.92 76.81,10.25 	"/>
</g>
<path class="st48" d="M21.88,92.82h99.4c0,0-9.09,5.29-47.8,5.29S21.88,92.82,21.88,92.82z"/>
<path class="st49" d="M32.27,92.82h77.41c0,0-7.08,3.22-37.23,3.22S32.27,92.82,32.27,92.82z"/>
<rect x="3.19" y="70.91" class="st10" width="17.64" height="21.91"/>
<polygon class="st50" points="20.89,74.35 15.7,76.02 15.7,81.58 3.19,81.58 3.19,71.29 20.89,71.46 "/>
<path class="st51" d="M28.96,71.46V55.42c0,0-1-7.47-8.19-7.47s-9.95,0-9.95,0s-7.63,0.33-7.63,7.82s0,15.69,0,15.69h25.51"/>
<path class="st52" d="M34.11,71.61V55.57c0,0-1.05-7.63-8.24-7.63s-9.95,0-9.95,0s-7.58,0.48-7.58,7.98s0,15.69,0,15.69h25.51"/>
<path class="st53" d="M23.47,61.44L5.61,61.4c0,0-4.7,0.69-4.7,5.29s2.53,5,2.53,5h16.47L23.47,61.44z"/>
<path class="st54" d="M18.13,61.44H8.3c0,0-4.24,0.49-4.24,4.14c0,3.65,0,13.93,0,13.93h10.16v-14.2
	C14.22,65.32,14.06,62.23,18.13,61.44z"/>
<circle class="st55" cx="23.57" cy="67.04" r="5.6"/>
<rect x="26.61" y="71.46" class="st46" width="7.49" height="18.57"/>
<rect x="20.2" y="70.77" class="st55" width="6.71" height="21.63"/>
<polygon class="st4" points="63.99,63.24 72.79,63.24 69.21,75.86 60.57,75.86 "/>
<path class="st56" d="M52.1,54.67c0,0-13.3-1.02-19.96,11.59c-3.02,5.72-3.16,12.95-1.18,17.19l19-1.41l9.11-6.11l3.86-0.79v-4.47
	L52.1,54.67z"/>
<path class="st56" d="M43.57,83.88l6.97-0.85l1.05,5.52c0,0,0.26,4.27-2.96,4.27s-31.29,0-31.29,0s-1.64-0.07-1.64-1.71
	s1.38-2.43,2.7-2.93c1.31-0.49,4.47-1.45,4.47-1.45L43.57,83.88z"/>
<path class="st57" d="M60.21,67.33l3.56-0.28c0,0,2.42-0.26,2.42,1.97c0,2.24-0.43,2.6-1.41,2.83c-0.99,0.23-3.55,0.56-3.55,0.56
	l-1.87-1.74L60.21,67.33z"/>
<path class="st58" d="M50.65,55.57c0,0-15.43,3.1-16.54,19.54l7.56-0.69c0,0,1.05,1.81,3.62,1.38c2.56-0.43,8.45-2.01,8.45-2.01
	v12.46h5.82V72.94l1.68-0.33l-1.08-5.62L50.65,55.57z"/>
<path class="st59" d="M62.92,47.18v-2.15c0,0-0.22-2.21-2.37-2.21s-6.49,0-6.49,0s-2.94,0.18-2.94,2.61s0,7.65,0,7.65L62.92,47.18z"
	/>
<circle class="st60" cx="51.22" cy="54.03" r="2.43"/>
<path class="st58" d="M34.11,77.83l18.37-1.41l0.56,4.83l-17.72,2.3C35.32,83.55,34.47,82.11,34.11,77.83z"/>
<path class="st58" d="M31.67,85.29l12.03-1.74l1.05,5.06c0,0,0.26,4.21-3.48,4.21c-3.75,0-9.6,0-9.6,0V85.29z"/>
<path class="st59" d="M63.47,58.02c0,0-0.59-4.51-7.6-4.51s-7.54,4.51-7.54,4.51s-1.34,5.3,3.22,7.12v16.57h6.14V65.12
	C57.69,65.12,64.17,66.11,63.47,58.02z"/>
<polygon class="st61" points="61.64,49.84 61.64,54.75 60.79,55.57 56.11,55.57 56.11,50.9 "/>
<path class="st4" d="M59.14,46.99h3.81c0,0,0.68,0.05,0.68,0.88c0,0.82,0,1.44,0,1.44s0.14,0.78-1.3,0.78v4.01
	c0,0-0.26,0.77-0.77,0.77v-4.72c0,0-0.32,0.54-1.29,0.54s-3.05,0-3.05,0s-0.96-0.08-0.96,1.21s0,2.8,0,2.8s0.09,0.69,0.94,0.69
	c0.85,0,1.35,0,1.35,0s0.31-1,1.73-1s1.81,1.16,1.81,1.16V65c0,0-0.2,2.52-3.13,2.52c-2.94,0-3.93-2.53-3.93-2.53v-4.05
	c0,0-1.11-0.32-1.11-2.48c0,0-0.98-0.14-0.98-1.04s0-7.35,0-7.35s-0.84-0.04-0.84-0.91s0-1.23,0-1.23s-0.07-0.85,0.76-0.85v-1.56
	c0,0-0.05-1.08,0.59-1.4l0.16,0.3c0,0-0.48,0.33-0.48,1.13c0,0.8,0,1.52,0,1.52L59.14,46.99z"/>
<path class="st62" d="M54.35,52.94h9.41c0,0,0.01,1.73-1.37,1.73c-1.61,0-1.76-1.73-1.76-1.73h-0.69c0,0-0.01,1.73-1.59,1.73
	c-1.58,0-1.73-1.73-1.73-1.73"/>
<path class="st61" d="M54.29,52.94c0,0-1.95-0.22-1.95,1.41s1.95,1.44,1.95,1.44V52.94z"/>
<g>
	<path class="st4" d="M30.32,86.74c-0.98,0-1.83-0.73-1.96-1.74c-0.13-1.08,0.64-2.06,1.72-2.19l21.77-2.63
		c1.08-0.13,2.06,0.64,2.19,1.72c0.13,1.08-0.64,2.06-1.72,2.19l-21.77,2.63C30.48,86.74,30.4,86.74,30.32,86.74z"/>
</g>
<line class="st63" x1="127.28" y1="89.3" x2="113.24" y2="89.3"/>
<path class="st64" d="M118.71,85.72c0.07,0.08,2.42,4.77,2.42,4.77s-0.64,0.08-0.64,1.25c0,1.17,1.07,1.3,1.07,1.3h-1.42L116,92.3
	L118.71,85.72z"/>
<path class="st40" d="M112.73,84.37c0,0,1.94-0.36,2.93,0c0,0,2.47-1.25,3.02-0.89s0,2.33,0,2.33s0.31,1.2,0.28,2.54
	c-0.03,1.02-0.67,1.92-1.63,2.26l-3.35,1.18l-3.11-1.11c-0.72-0.26-1.26-0.86-1.44-1.61c-0.18-0.75-0.27-1.82,0.05-3.16
	c0,0-0.23-1.58,0.23-2.33C110.17,82.83,112.73,84.37,112.73,84.37z"/>
<circle class="st65" cx="112.83" cy="90.82" r="1.36"/>
<circle class="st65" cx="115.34" cy="90.82" r="1.36"/>
<line class="st66" x1="109.01" y1="91.8" x2="113.12" y2="91.8"/>
<line class="st66" x1="114.79" y1="91.8" x2="119.33" y2="91.8"/>
<line class="st67" x1="123.56" y1="91.51" x2="130.99" y2="91.51"/>
<path class="st64" d="M125.71,88.91L125.71,88.91c-0.44,0-0.79-0.35-0.79-0.79v-2.37h1.58v2.37
	C126.5,88.56,126.15,88.91,125.71,88.91z"/>
<path class="st64" d="M122.14,88.91L122.14,88.91c-0.44,0-0.79-0.35-0.79-0.79v-2.37h1.58v2.37
	C122.93,88.56,122.58,88.91,122.14,88.91z"/>
<path class="st68" d="M113.61,88.7c0,0.69-0.56,1.25-1.25,1.25s-1.25-0.56-1.25-1.25H113.61z"/>
<path class="st68" d="M117.16,88.73c0,0.69-0.56,1.25-1.25,1.25s-1.25-0.56-1.25-1.25H117.16z"/>
<ellipse class="st68" cx="114.24" cy="85.85" rx="1.09" ry="1.51"/>
</svg>
